<svg xmlns="http://www.w3.org/2000/svg" viewBox="0 0 512 512" fill="none">
  <rect x="24" y="24" width="464" height="464" rx="112" fill="#000000"/>
  <path d="M84 58C140 32 210 24 278 36C368 52 438 112 466 194V70C466 42 444 24 416 24H130C110 24 92 38 84 58Z" fill="#FFFFFF" fill-opacity="0.10"/>

  <g stroke="#FFFFFF" stroke-linecap="round" stroke-linejoin="round" fill="none">
    <path d="M104 282C146 208 198 170 256 170C314 170 366 208 408 282" stroke-width="42"/>
    <path d="M150 334C178 286 214 258 256 258C298 258 334 286 362 334" stroke-width="34"/>
  </g>

  <circle cx="256" cy="394" r="32" fill="#FFFFFF"/>
</svg>
